<svg id="visual" viewBox="0 0 900 600" width="900" height="600" xmlns="http://www.w3.org/2000/svg" xmlns:xlink="http://www.w3.org/1999/xlink" version="1.1"><rect x="0" y="0" width="900" height="600" fill="#C4AE78"></rect><g fill="#f4e9d3"><circle r="14" cx="271" cy="13"></circle><circle r="6" cx="290" cy="419"></circle><circle r="5" cx="701" cy="424"></circle><circle r="9" cx="402" cy="551"></circle><circle r="12" cx="4" cy="228"></circle><circle r="7" cx="433" cy="466"></circle><circle r="11" cx="881" cy="13"></circle><circle r="8" cx="431" cy="593"></circle><circle r="5" cx="522" cy="469"></circle><circle r="8" cx="713" cy="305"></circle><circle r="7" cx="524" cy="528"></circle><circle r="12" cx="432" cy="47"></circle><circle r="11" cx="85" cy="104"></circle><circle r="9" cx="563" cy="189"></circle><circle r="10" cx="881" cy="425"></circle><circle r="7" cx="335" cy="14"></circle><circle r="9" cx="48" cy="560"></circle><circle r="11" cx="209" cy="275"></circle><circle r="12" cx="885" cy="44"></circle><circle r="6" cx="771" cy="484"></circle><circle r="6" cx="35" cy="243"></circle><circle r="7" cx="40" cy="377"></circle><circle r="8" cx="884" cy="469"></circle><circle r="10" cx="796" cy="46"></circle><circle r="8" cx="213" cy="169"></circle><circle r="6" cx="605" cy="224"></circle><circle r="5" cx="280" cy="303"></circle><circle r="7" cx="393" cy="373"></circle><circle r="10" cx="31" cy="432"></circle><circle r="8" cx="610" cy="193"></circle><circle r="12" cx="818" cy="463"></circle><circle r="10" cx="263" cy="528"></circle><circle r="11" cx="76" cy="563"></circle><circle r="8" cx="890" cy="532"></circle><circle r="5" cx="428" cy="95"></circle><circle r="9" cx="342" cy="164"></circle><circle r="12" cx="611" cy="66"></circle><circle r="11" cx="850" cy="593"></circle><circle r="8" cx="457" cy="16"></circle><circle r="10" cx="245" cy="496"></circle><circle r="5" cx="380" cy="126"></circle><circle r="6" cx="305" cy="451"></circle><circle r="6" cx="489" cy="507"></circle><circle r="9" cx="444" cy="511"></circle><circle r="11" cx="860" cy="320"></circle><circle r="10" cx="39" cy="132"></circle><circle r="11" cx="747" cy="449"></circle><circle r="11" cx="752" cy="553"></circle><circle r="12" cx="420" cy="421"></circle><circle r="5" cx="116" cy="111"></circle><circle r="9" cx="50" cy="294"></circle><circle r="5" cx="540" cy="440"></circle><circle r="10" cx="119" cy="149"></circle><circle r="10" cx="96" cy="373"></circle><circle r="10" cx="469" cy="102"></circle><circle r="7" cx="452" cy="152"></circle><circle r="9" cx="764" cy="403"></circle><circle r="6" cx="51" cy="505"></circle><circle r="7" cx="356" cy="48"></circle><circle r="7" cx="832" cy="125"></circle><circle r="8" cx="810" cy="94"></circle><circle r="9" cx="124" cy="492"></circle><circle r="10" cx="162" cy="154"></circle><circle r="9" cx="520" cy="377"></circle><circle r="8" cx="787" cy="458"></circle><circle r="8" cx="3" cy="260"></circle><circle r="5" cx="745" cy="153"></circle><circle r="8" cx="192" cy="367"></circle><circle r="7" cx="847" cy="35"></circle><circle r="12" cx="108" cy="530"></circle><circle r="11" cx="778" cy="310"></circle><circle r="6" cx="322" cy="546"></circle><circle r="10" cx="197" cy="34"></circle><circle r="8" cx="2" cy="418"></circle><circle r="6" cx="409" cy="152"></circle><circle r="12" cx="71" cy="8"></circle><circle r="12" cx="222" cy="459"></circle><circle r="11" cx="732" cy="527"></circle><circle r="8" cx="628" cy="440"></circle><circle r="11" cx="533" cy="500"></circle><circle r="6" cx="6" cy="331"></circle><circle r="9" cx="412" cy="202"></circle><circle r="11" cx="128" cy="295"></circle><circle r="11" cx="223" cy="81"></circle><circle r="9" cx="125" cy="553"></circle><circle r="6" cx="692" cy="526"></circle><circle r="6" cx="694" cy="338"></circle><circle r="6" cx="329" cy="136"></circle><circle r="8" cx="454" cy="253"></circle><circle r="9" cx="813" cy="535"></circle><circle r="12" cx="590" cy="491"></circle><circle r="8" cx="511" cy="87"></circle><circle r="9" cx="826" cy="507"></circle><circle r="11" cx="543" cy="98"></circle><circle r="11" cx="728" cy="45"></circle><circle r="7" cx="132" cy="25"></circle><circle r="11" cx="180" cy="334"></circle><circle r="11" cx="785" cy="589"></circle><circle r="7" cx="611" cy="29"></circle><circle r="5" cx="799" cy="382"></circle><circle r="5" cx="174" cy="72"></circle><circle r="12" cx="638" cy="365"></circle><circle r="11" cx="377" cy="234"></circle><circle r="7" cx="538" cy="157"></circle><circle r="12" cx="520" cy="206"></circle><circle r="11" cx="570" cy="344"></circle><circle r="11" cx="40" cy="12"></circle><circle r="5" cx="215" cy="542"></circle><circle r="8" cx="157" cy="506"></circle><circle r="7" cx="770" cy="527"></circle><circle r="8" cx="50" cy="344"></circle><circle r="10" cx="891" cy="237"></circle><circle r="5" cx="109" cy="450"></circle><circle r="12" cx="887" cy="396"></circle><circle r="9" cx="545" cy="329"></circle><circle r="10" cx="20" cy="528"></circle><circle r="10" cx="441" cy="189"></circle><circle r="7" cx="293" cy="383"></circle><circle r="7" cx="573" cy="221"></circle><circle r="9" cx="691" cy="287"></circle><circle r="5" cx="472" cy="298"></circle><circle r="12" cx="699" cy="92"></circle><circle r="10" cx="375" cy="314"></circle><circle r="6" cx="639" cy="197"></circle><circle r="10" cx="371" cy="427"></circle><circle r="6" cx="4" cy="368"></circle><circle r="10" cx="617" cy="94"></circle><circle r="6" cx="373" cy="576"></circle><circle r="9" cx="717" cy="115"></circle><circle r="9" cx="766" cy="87"></circle><circle r="6" cx="749" cy="251"></circle><circle r="7" cx="408" cy="303"></circle><circle r="5" cx="223" cy="43"></circle><circle r="12" cx="90" cy="31"></circle><circle r="11" cx="101" cy="182"></circle><circle r="9" cx="164" cy="301"></circle><circle r="8" cx="710" cy="15"></circle><circle r="5" cx="565" cy="150"></circle><circle r="12" cx="23" cy="203"></circle><circle r="10" cx="471" cy="453"></circle><circle r="6" cx="436" cy="543"></circle><circle r="7" cx="462" cy="567"></circle><circle r="6" cx="606" cy="564"></circle><circle r="11" cx="190" cy="249"></circle><circle r="11" cx="708" cy="461"></circle><circle r="8" cx="165" cy="469"></circle><circle r="6" cx="503" cy="569"></circle><circle r="12" cx="120" cy="415"></circle><circle r="8" cx="626" cy="278"></circle><circle r="7" cx="318" cy="72"></circle><circle r="5" cx="672" cy="321"></circle><circle r="5" cx="309" cy="283"></circle><circle r="7" cx="742" cy="104"></circle><circle r="7" cx="235" cy="364"></circle><circle r="6" cx="568" cy="85"></circle><circle r="10" cx="98" cy="268"></circle><circle r="8" cx="82" cy="402"></circle><circle r="5" cx="270" cy="110"></circle><circle r="5" cx="612" cy="462"></circle><circle r="12" cx="176" cy="205"></circle><circle r="6" cx="772" cy="231"></circle><circle r="9" cx="334" cy="272"></circle><circle r="11" cx="259" cy="232"></circle><circle r="5" cx="419" cy="388"></circle><circle r="11" cx="333" cy="427"></circle><circle r="9" cx="47" cy="476"></circle><circle r="6" cx="785" cy="267"></circle><circle r="7" cx="426" cy="278"></circle><circle r="9" cx="807" cy="302"></circle><circle r="10" cx="74" cy="592"></circle><circle r="8" cx="280" cy="264"></circle><circle r="7" cx="483" cy="548"></circle><circle r="7" cx="544" cy="246"></circle><circle r="12" cx="819" cy="402"></circle><circle r="9" cx="653" cy="595"></circle><circle r="12" cx="678" cy="490"></circle><circle r="10" cx="126" cy="86"></circle><circle r="12" cx="294" cy="349"></circle><circle r="9" cx="258" cy="389"></circle><circle r="12" cx="469" cy="355"></circle><circle r="5" cx="144" cy="246"></circle><circle r="11" cx="353" cy="528"></circle><circle r="6" cx="337" cy="580"></circle><circle r="6" cx="148" cy="220"></circle><circle r="12" cx="789" cy="16"></circle><circle r="5" cx="246" cy="553"></circle><circle r="11" cx="687" cy="39"></circle><circle r="9" cx="231" cy="596"></circle><circle r="9" cx="212" cy="120"></circle><circle r="6" cx="217" cy="387"></circle><circle r="12" cx="221" cy="250"></circle><circle r="5" cx="832" cy="191"></circle><circle r="10" cx="618" cy="397"></circle><circle r="6" cx="388" cy="172"></circle><circle r="6" cx="616" cy="333"></circle><circle r="9" cx="281" cy="51"></circle><circle r="5" cx="854" cy="557"></circle><circle r="12" cx="306" cy="234"></circle><circle r="5" cx="273" cy="467"></circle><circle r="11" cx="673" cy="201"></circle><circle r="12" cx="143" cy="114"></circle><circle r="11" cx="162" cy="543"></circle><circle r="6" cx="381" cy="455"></circle><circle r="6" cx="896" cy="279"></circle><circle r="6" cx="629" cy="506"></circle><circle r="5" cx="17" cy="70"></circle><circle r="12" cx="380" cy="274"></circle><circle r="9" cx="66" cy="236"></circle><circle r="6" cx="777" cy="363"></circle><circle r="8" cx="595" cy="283"></circle><circle r="5" cx="70" cy="190"></circle><circle r="8" cx="93" cy="301"></circle><circle r="5" cx="615" cy="125"></circle><circle r="10" cx="325" cy="478"></circle><circle r="12" cx="397" cy="30"></circle><circle r="5" cx="835" cy="341"></circle><circle r="5" cx="156" cy="427"></circle><circle r="10" cx="334" cy="330"></circle><circle r="8" cx="448" cy="225"></circle><circle r="9" cx="634" cy="166"></circle><circle r="8" cx="860" cy="254"></circle><circle r="6" cx="305" cy="583"></circle><circle r="11" cx="493" cy="158"></circle><circle r="11" cx="92" cy="156"></circle><circle r="8" cx="236" cy="316"></circle><circle r="6" cx="738" cy="486"></circle><circle r="12" cx="93" cy="78"></circle><circle r="5" cx="531" cy="14"></circle><circle r="12" cx="353" cy="355"></circle><circle r="6" cx="542" cy="576"></circle><circle r="12" cx="735" cy="389"></circle><circle r="10" cx="843" cy="299"></circle><circle r="6" cx="558" cy="390"></circle><circle r="10" cx="715" cy="262"></circle><circle r="7" cx="380" cy="206"></circle><circle r="5" cx="872" cy="363"></circle><circle r="5" cx="676" cy="436"></circle><circle r="9" cx="248" cy="170"></circle><circle r="9" cx="15" cy="109"></circle><circle r="11" cx="643" cy="479"></circle><circle r="12" cx="470" cy="43"></circle><circle r="5" cx="379" cy="84"></circle><circle r="10" cx="443" cy="323"></circle><circle r="9" cx="509" cy="313"></circle><circle r="10" cx="391" cy="512"></circle><circle r="12" cx="677" cy="228"></circle><circle r="10" cx="154" cy="277"></circle><circle r="11" cx="358" cy="385"></circle><circle r="11" cx="156" cy="384"></circle><circle r="8" cx="800" cy="156"></circle><circle r="11" cx="897" cy="321"></circle><circle r="5" cx="703" cy="213"></circle><circle r="12" cx="212" cy="204"></circle><circle r="11" cx="390" cy="338"></circle><circle r="10" cx="660" cy="118"></circle><circle r="8" cx="703" cy="373"></circle><circle r="12" cx="785" cy="553"></circle><circle r="12" cx="648" cy="566"></circle><circle r="10" cx="561" cy="304"></circle><circle r="10" cx="289" cy="177"></circle><circle r="12" cx="251" cy="77"></circle><circle r="7" cx="638" cy="304"></circle><circle r="9" cx="114" cy="52"></circle><circle r="8" cx="72" cy="455"></circle><circle r="7" cx="255" cy="289"></circle><circle r="11" cx="509" cy="125"></circle><circle r="7" cx="257" cy="579"></circle><circle r="11" cx="135" cy="331"></circle><circle r="5" cx="694" cy="566"></circle><circle r="8" cx="195" cy="445"></circle><circle r="5" cx="14" cy="31"></circle><circle r="10" cx="535" cy="282"></circle><circle r="10" cx="660" cy="526"></circle><circle r="8" cx="477" cy="598"></circle><circle r="11" cx="888" cy="176"></circle><circle r="11" cx="325" cy="399"></circle><circle r="9" cx="340" cy="108"></circle><circle r="8" cx="166" cy="572"></circle><circle r="9" cx="349" cy="202"></circle><circle r="6" cx="797" cy="511"></circle><circle r="9" cx="739" cy="333"></circle><circle r="8" cx="194" cy="584"></circle><circle r="7" cx="293" cy="542"></circle><circle r="5" cx="374" cy="7"></circle><circle r="11" cx="161" cy="3"></circle><circle r="12" cx="412" cy="352"></circle><circle r="5" cx="671" cy="17"></circle><circle r="6" cx="791" cy="188"></circle><circle r="8" cx="326" cy="303"></circle><circle r="8" cx="536" cy="52"></circle><circle r="12" cx="58" cy="433"></circle><circle r="12" cx="723" cy="72"></circle><circle r="9" cx="462" cy="402"></circle><circle r="11" cx="512" cy="409"></circle><circle r="12" cx="447" cy="435"></circle><circle r="6" cx="640" cy="75"></circle><circle r="10" cx="99" cy="332"></circle><circle r="7" cx="185" cy="110"></circle><circle r="5" cx="356" cy="470"></circle><circle r="11" cx="576" cy="35"></circle><circle r="5" cx="568" cy="449"></circle><circle r="8" cx="270" cy="330"></circle><circle r="11" cx="68" cy="61"></circle><circle r="5" cx="594" cy="540"></circle><circle r="10" cx="820" cy="30"></circle><circle r="12" cx="623" cy="594"></circle><circle r="5" cx="495" cy="226"></circle><circle r="12" cx="304" cy="11"></circle><circle r="10" cx="329" cy="507"></circle><circle r="12" cx="322" cy="365"></circle><circle r="7" cx="871" cy="114"></circle><circle r="11" cx="138" cy="585"></circle><circle r="9" cx="693" cy="131"></circle><circle r="8" cx="854" cy="481"></circle><circle r="5" cx="762" cy="283"></circle><circle r="9" cx="18" cy="285"></circle><circle r="10" cx="656" cy="345"></circle><circle r="9" cx="569" cy="519"></circle><circle r="10" cx="49" cy="168"></circle><circle r="6" cx="508" cy="344"></circle><circle r="9" cx="299" cy="106"></circle><circle r="9" cx="549" cy="538"></circle><circle r="12" cx="730" cy="226"></circle><circle r="12" cx="67" cy="140"></circle><circle r="8" cx="257" cy="436"></circle><circle r="8" cx="584" cy="419"></circle><circle r="5" cx="408" cy="231"></circle><circle r="5" cx="339" cy="231"></circle><circle r="7" cx="608" cy="360"></circle><circle r="9" cx="662" cy="262"></circle><circle r="8" cx="707" cy="161"></circle><circle r="9" cx="857" cy="146"></circle><circle r="6" cx="606" cy="156"></circle><circle r="9" cx="496" cy="264"></circle><circle r="7" cx="647" cy="421"></circle><circle r="12" cx="787" cy="416"></circle><circle r="11" cx="252" cy="33"></circle><circle r="6" cx="284" cy="495"></circle><circle r="10" cx="507" cy="1"></circle><circle r="9" cx="105" cy="231"></circle><circle r="11" cx="604" cy="250"></circle><circle r="9" cx="851" cy="75"></circle><circle r="6" cx="811" cy="354"></circle><circle r="5" cx="231" cy="10"></circle><circle r="5" cx="884" cy="211"></circle><circle r="8" cx="46" cy="592"></circle><circle r="8" cx="882" cy="580"></circle><circle r="7" cx="853" cy="403"></circle><circle r="6" cx="670" cy="389"></circle><circle r="8" cx="406" cy="67"></circle><circle r="6" cx="362" cy="501"></circle><circle r="11" cx="408" cy="491"></circle><circle r="11" cx="232" cy="523"></circle><circle r="7" cx="200" cy="481"></circle><circle r="6" cx="479" cy="127"></circle><circle r="5" cx="191" cy="305"></circle><circle r="8" cx="665" cy="53"></circle><circle r="9" cx="158" cy="185"></circle><circle r="10" cx="722" cy="553"></circle><circle r="10" cx="836" cy="443"></circle><circle r="10" cx="893" cy="90"></circle><circle r="8" cx="819" cy="65"></circle><circle r="6" cx="711" cy="493"></circle><circle r="9" cx="516" cy="172"></circle><circle r="9" cx="822" cy="278"></circle><circle r="7" cx="270" cy="199"></circle><circle r="11" cx="187" cy="397"></circle><circle r="9" cx="690" cy="254"></circle><circle r="11" cx="394" cy="598"></circle><circle r="7" cx="732" cy="181"></circle><circle r="7" cx="484" cy="381"></circle><circle r="7" cx="833" cy="234"></circle><circle r="5" cx="582" cy="576"></circle><circle r="9" cx="504" cy="34"></circle><circle r="6" cx="469" cy="196"></circle><circle r="11" cx="561" cy="275"></circle><circle r="10" cx="764" cy="53"></circle><circle r="8" cx="2" cy="473"></circle><circle r="10" cx="41" cy="405"></circle><circle r="9" cx="562" cy="12"></circle><circle r="5" cx="194" cy="2"></circle><circle r="5" cx="495" cy="467"></circle><circle r="9" cx="390" cy="406"></circle><circle r="11" cx="292" cy="137"></circle><circle r="5" cx="299" cy="206"></circle><circle r="7" cx="759" cy="176"></circle><circle r="10" cx="540" cy="356"></circle><circle r="9" cx="131" cy="362"></circle><circle r="8" cx="67" cy="379"></circle><circle r="8" cx="476" cy="73"></circle><circle r="11" cx="635" cy="46"></circle><circle r="11" cx="131" cy="464"></circle><circle r="8" cx="256" cy="135"></circle><circle r="8" cx="41" cy="96"></circle><circle r="10" cx="636" cy="242"></circle><circle r="5" cx="187" cy="167"></circle><circle r="12" cx="316" cy="178"></circle><circle r="12" cx="23" cy="492"></circle><circle r="7" cx="878" cy="299"></circle><circle r="11" cx="23" cy="154"></circle><circle r="6" cx="740" cy="17"></circle><circle r="12" cx="672" cy="151"></circle><circle r="9" cx="226" cy="412"></circle><circle r="12" cx="734" cy="425"></circle><circle r="8" cx="156" cy="43"></circle><circle r="11" cx="545" cy="128"></circle><circle r="8" cx="9" cy="559"></circle><circle r="9" cx="563" cy="599"></circle><circle r="5" cx="92" cy="507"></circle><circle r="9" cx="448" cy="378"></circle><circle r="6" cx="458" cy="483"></circle><circle r="9" cx="764" cy="131"></circle><circle r="9" cx="817" cy="593"></circle><circle r="12" cx="103" cy="579"></circle><circle r="10" cx="752" cy="582"></circle><circle r="5" cx="797" cy="216"></circle><circle r="10" cx="692" cy="597"></circle><circle r="9" cx="846" cy="523"></circle><circle r="10" cx="562" cy="493"></circle><circle r="5" cx="30" cy="312"></circle><circle r="10" cx="591" cy="3"></circle><circle r="5" cx="83" cy="215"></circle><circle r="9" cx="207" cy="334"></circle><circle r="9" cx="414" cy="6"></circle><circle r="10" cx="14" cy="596"></circle><circle r="8" cx="247" cy="257"></circle><circle r="11" cx="269" cy="365"></circle><circle r="9" cx="767" cy="338"></circle><circle r="11" cx="54" cy="267"></circle><circle r="11" cx="414" cy="528"></circle><circle r="7" cx="10" cy="1"></circle><circle r="7" cx="107" cy="7"></circle><circle r="10" cx="591" cy="310"></circle><circle r="6" cx="861" cy="195"></circle><circle r="5" cx="505" cy="598"></circle><circle r="7" cx="808" cy="242"></circle><circle r="11" cx="831" cy="159"></circle><circle r="10" cx="670" cy="93"></circle><circle r="12" cx="898" cy="497"></circle><circle r="8" cx="6" cy="183"></circle><circle r="6" cx="579" cy="371"></circle><circle r="7" cx="443" cy="73"></circle><circle r="10" cx="631" cy="541"></circle><circle r="6" cx="449" cy="122"></circle><circle r="12" cx="407" cy="115"></circle><circle r="5" cx="576" cy="125"></circle><circle r="6" cx="855" cy="7"></circle><circle r="8" cx="194" cy="523"></circle><circle r="7" cx="480" cy="427"></circle><circle r="12" cx="126" cy="268"></circle><circle r="11" cx="485" cy="328"></circle><circle r="11" cx="795" cy="334"></circle><circle r="6" cx="93" cy="472"></circle><circle r="9" cx="134" cy="521"></circle><circle r="5" cx="126" cy="196"></circle><circle r="9" cx="71" cy="523"></circle><circle r="11" cx="632" cy="7"></circle><circle r="7" cx="889" cy="133"></circle><circle r="5" cx="374" cy="547"></circle><circle r="7" cx="764" cy="4"></circle><circle r="7" cx="277" cy="77"></circle><circle r="9" cx="516" cy="241"></circle><circle r="5" cx="790" cy="121"></circle><circle r="7" cx="745" cy="362"></circle><circle r="8" cx="317" cy="36"></circle><circle r="7" cx="547" cy="218"></circle><circle r="10" cx="755" cy="206"></circle><circle r="12" cx="239" cy="205"></circle><circle r="11" cx="347" cy="81"></circle><circle r="11" cx="153" cy="89"></circle><circle r="9" cx="39" cy="53"></circle><circle r="10" cx="664" cy="463"></circle><circle r="9" cx="6" cy="445"></circle><circle r="12" cx="663" cy="289"></circle><circle r="10" cx="357" cy="291"></circle><circle r="9" cx="410" cy="449"></circle><circle r="5" cx="695" cy="187"></circle><circle r="12" cx="426" cy="250"></circle><circle r="6" cx="497" cy="192"></circle><circle r="8" cx="236" cy="106"></circle><circle r="11" cx="736" cy="278"></circle><circle r="9" cx="725" cy="594"></circle><circle r="12" cx="898" cy="446"></circle><circle r="8" cx="575" cy="247"></circle><circle r="8" cx="821" cy="562"></circle><circle r="9" cx="66" cy="318"></circle><circle r="8" cx="828" cy="377"></circle><circle r="6" cx="1" cy="139"></circle><circle r="8" cx="90" cy="429"></circle><circle r="8" cx="789" cy="74"></circle><circle r="8" cx="191" cy="137"></circle><circle r="5" cx="78" cy="349"></circle><circle r="7" cx="505" cy="438"></circle><circle r="9" cx="540" cy="411"></circle><circle r="11" cx="366" cy="150"></circle><circle r="7" cx="805" cy="437"></circle><circle r="6" cx="183" cy="280"></circle><circle r="10" cx="155" cy="348"></circle><circle r="6" cx="859" cy="226"></circle><circle r="12" cx="865" cy="449"></circle><circle r="6" cx="816" cy="4"></circle><circle r="12" cx="190" cy="555"></circle><circle r="11" cx="438" cy="349"></circle><circle r="7" cx="646" cy="140"></circle><circle r="9" cx="50" cy="213"></circle><circle r="9" cx="843" cy="100"></circle><circle r="9" cx="72" cy="489"></circle><circle r="7" cx="279" cy="595"></circle><circle r="11" cx="219" cy="569"></circle><circle r="7" cx="227" cy="146"></circle><circle r="11" cx="359" cy="257"></circle><circle r="9" cx="200" cy="61"></circle><circle r="6" cx="898" cy="350"></circle><circle r="7" cx="563" cy="59"></circle><circle r="11" cx="870" cy="506"></circle><circle r="12" cx="165" cy="599"></circle><circle r="9" cx="660" cy="178"></circle><circle r="9" cx="304" cy="321"></circle><circle r="8" cx="524" cy="554"></circle><circle r="8" cx="805" cy="486"></circle><circle r="5" cx="282" cy="568"></circle><circle r="6" cx="697" cy="64"></circle><circle r="5" cx="679" cy="362"></circle><circle r="11" cx="583" cy="169"></circle><circle r="5" cx="593" cy="104"></circle><circle r="12" cx="58" cy="33"></circle><circle r="7" cx="484" cy="17"></circle></g></svg>